<?xml version="1.0" encoding="UTF-8" standalone="no"?>
<!DOCTYPE svg PUBLIC "-//W3C//DTD SVG 1.1//EN"
 "http://www.w3.org/Graphics/SVG/1.1/DTD/svg11.dtd">
<!-- Generated by graphviz version 11.0.0 (20240519.1550)
 -->
<!-- Title: model Pages: 1 -->
<svg width="136pt" height="355pt"
 viewBox="0.00 0.00 136.00 355.00" xmlns="http://www.w3.org/2000/svg" xmlns:xlink="http://www.w3.org/1999/xlink">
<g id="graph0" class="graph" transform="scale(1 1) rotate(0) translate(4 351)">
<title>model</title>
<polygon fill="white" stroke="none" points="-4,4 -4,-351 132,-351 132,4 -4,4"/>
<!-- 0 -->
<g id="node1" class="node">
<title>0</title>
<polygon fill="lightyellow" stroke="none" points="114.88,-347 13.12,-347 13.12,-311.5 114.88,-311.5 114.88,-347"/>
<polygon fill="none" stroke="black" points="13.12,-311.5 13.12,-347 82.38,-347 82.38,-311.5 13.12,-311.5"/>
<text text-anchor="start" x="18.12" y="-332.5" font-family="Linux libertine" font-size="10.00">input&#45;tensor</text>
<text text-anchor="start" x="29.38" y="-319.75" font-family="Linux libertine" font-size="10.00">depth:0</text>
<polygon fill="none" stroke="black" points="82.38,-311.5 82.38,-347 114.88,-347 114.88,-311.5 82.38,-311.5"/>
<text text-anchor="start" x="87.38" y="-326.12" font-family="Linux libertine" font-size="10.00">(64,)</text>
</g>
<!-- 1 -->
<g id="node2" class="node">
<title>1</title>
<polygon fill="#c1ffc1" stroke="none" points="128,-275.5 0,-275.5 0,-231.5 128,-231.5 128,-275.5"/>
<polygon fill="none" stroke="black" points="0,-231.5 0,-275.5 46,-275.5 46,-231.5 0,-231.5"/>
<text text-anchor="start" x="8" y="-256.75" font-family="Linux libertine" font-size="10.00">Linear</text>
<text text-anchor="start" x="4.62" y="-244" font-family="Linux libertine" font-size="10.00">depth:1</text>
<polygon fill="none" stroke="black" points="46,-253.5 46,-275.5 93,-275.5 93,-253.5 46,-253.5"/>
<text text-anchor="start" x="55.62" y="-261" font-family="Linux libertine" font-size="10.00">input:</text>
<polygon fill="none" stroke="black" points="93,-253.5 93,-275.5 128,-275.5 128,-253.5 93,-253.5"/>
<text text-anchor="start" x="97.75" y="-261" font-family="Linux libertine" font-size="10.00">(64,) </text>
<polygon fill="none" stroke="black" points="46,-231.5 46,-253.5 93,-253.5 93,-231.5 46,-231.5"/>
<text text-anchor="start" x="50.75" y="-239" font-family="Linux libertine" font-size="10.00">output: </text>
<polygon fill="none" stroke="black" points="93,-231.5 93,-253.5 128,-253.5 128,-231.5 93,-231.5"/>
<text text-anchor="start" x="97.75" y="-239" font-family="Linux libertine" font-size="10.00">(32,) </text>
</g>
<!-- 0&#45;&gt;1 -->
<g id="edge1" class="edge">
<title>0&#45;&gt;1</title>
<path fill="none" stroke="black" d="M64,-311.51C64,-304.15 64,-295.24 64,-286.68"/>
<polygon fill="black" stroke="black" points="67.5,-286.9 64,-276.9 60.5,-286.9 67.5,-286.9"/>
</g>
<!-- 2 -->
<g id="node3" class="node">
<title>2</title>
<polygon fill="#c1ffc1" stroke="none" points="128,-195.5 0,-195.5 0,-151.5 128,-151.5 128,-195.5"/>
<polygon fill="none" stroke="black" points="0,-151.5 0,-195.5 46,-195.5 46,-151.5 0,-151.5"/>
<text text-anchor="start" x="10.25" y="-176.75" font-family="Linux libertine" font-size="10.00">ReLU</text>
<text text-anchor="start" x="4.62" y="-164" font-family="Linux libertine" font-size="10.00">depth:1</text>
<polygon fill="none" stroke="black" points="46,-173.5 46,-195.5 93,-195.5 93,-173.5 46,-173.5"/>
<text text-anchor="start" x="55.62" y="-181" font-family="Linux libertine" font-size="10.00">input:</text>
<polygon fill="none" stroke="black" points="93,-173.5 93,-195.5 128,-195.5 128,-173.5 93,-173.5"/>
<text text-anchor="start" x="97.75" y="-181" font-family="Linux libertine" font-size="10.00">(32,) </text>
<polygon fill="none" stroke="black" points="46,-151.5 46,-173.5 93,-173.5 93,-151.5 46,-151.5"/>
<text text-anchor="start" x="50.75" y="-159" font-family="Linux libertine" font-size="10.00">output: </text>
<polygon fill="none" stroke="black" points="93,-151.5 93,-173.5 128,-173.5 128,-151.5 93,-151.5"/>
<text text-anchor="start" x="97.75" y="-159" font-family="Linux libertine" font-size="10.00">(32,) </text>
</g>
<!-- 1&#45;&gt;2 -->
<g id="edge2" class="edge">
<title>1&#45;&gt;2</title>
<path fill="none" stroke="black" d="M64,-231.6C64,-223.99 64,-215.2 64,-206.84"/>
<polygon fill="black" stroke="black" points="67.5,-206.97 64,-196.97 60.5,-206.97 67.5,-206.97"/>
</g>
<!-- 3 -->
<g id="node4" class="node">
<title>3</title>
<polygon fill="#c1ffc1" stroke="none" points="128,-115.5 0,-115.5 0,-71.5 128,-71.5 128,-115.5"/>
<polygon fill="none" stroke="black" points="0,-71.5 0,-115.5 46,-115.5 46,-71.5 0,-71.5"/>
<text text-anchor="start" x="8" y="-96.75" font-family="Linux libertine" font-size="10.00">Linear</text>
<text text-anchor="start" x="4.62" y="-84" font-family="Linux libertine" font-size="10.00">depth:1</text>
<polygon fill="none" stroke="black" points="46,-93.5 46,-115.5 93,-115.5 93,-93.5 46,-93.5"/>
<text text-anchor="start" x="55.62" y="-101" font-family="Linux libertine" font-size="10.00">input:</text>
<polygon fill="none" stroke="black" points="93,-93.5 93,-115.5 128,-115.5 128,-93.5 93,-93.5"/>
<text text-anchor="start" x="97.75" y="-101" font-family="Linux libertine" font-size="10.00">(32,) </text>
<polygon fill="none" stroke="black" points="46,-71.5 46,-93.5 93,-93.5 93,-71.5 46,-71.5"/>
<text text-anchor="start" x="50.75" y="-79" font-family="Linux libertine" font-size="10.00">output: </text>
<polygon fill="none" stroke="black" points="93,-71.5 93,-93.5 128,-93.5 128,-71.5 93,-71.5"/>
<text text-anchor="start" x="97.75" y="-79" font-family="Linux libertine" font-size="10.00">(10,) </text>
</g>
<!-- 2&#45;&gt;3 -->
<g id="edge3" class="edge">
<title>2&#45;&gt;3</title>
<path fill="none" stroke="black" d="M64,-151.6C64,-143.99 64,-135.2 64,-126.84"/>
<polygon fill="black" stroke="black" points="67.5,-126.97 64,-116.97 60.5,-126.97 67.5,-126.97"/>
</g>
<!-- 4 -->
<g id="node5" class="node">
<title>4</title>
<polygon fill="lightyellow" stroke="none" points="118.25,-35.5 9.75,-35.5 9.75,0 118.25,0 118.25,-35.5"/>
<polygon fill="none" stroke="black" points="9.75,0 9.75,-35.5 85.75,-35.5 85.75,0 9.75,0"/>
<text text-anchor="start" x="14.75" y="-21" font-family="Linux libertine" font-size="10.00">output&#45;tensor</text>
<text text-anchor="start" x="29.38" y="-8.25" font-family="Linux libertine" font-size="10.00">depth:0</text>
<polygon fill="none" stroke="black" points="85.75,0 85.75,-35.5 118.25,-35.5 118.25,0 85.75,0"/>
<text text-anchor="start" x="90.75" y="-14.62" font-family="Linux libertine" font-size="10.00">(10,)</text>
</g>
<!-- 3&#45;&gt;4 -->
<g id="edge4" class="edge">
<title>3&#45;&gt;4</title>
<path fill="none" stroke="black" d="M64,-71.56C64,-63.78 64,-54.83 64,-46.53"/>
<polygon fill="black" stroke="black" points="67.5,-46.56 64,-36.56 60.5,-46.56 67.5,-46.56"/>
</g>
</g>
</svg>
